<?xml version="1.0" encoding="UTF-8"?>
<svg id="katman_1" xmlns="http://www.w3.org/2000/svg" xmlns:i="http://ns.adobe.com/AdobeIllustrator/10.0/" version="1.1" viewBox="0 0 198.49 188.27">
  <defs>
    <style>
      .st0, .st1 {
        fill-rule: evenodd;
      }

      .st0, .st2 {
        fill: #0a4165;
      }

      .st1, .st3 {
        fill: #4687c7;
      }
    </style>
  </defs>
  <path class="st0" d="M119.36,30.55c-2.36-2.44-4.45-4.54-7.92-6.46-3.24-1.79-6.52-3.09-10.65-3.71-17.43-2.62-30.98,9.37-34.26,22.62-8.25,33.31,35.01,52.74,54.73,25.43.71-.98,2.27-3.26,2.51-4.62h-2.24c-2.1,2.97-1.6,3.35-4.96,6.84-1.73,1.8-4.22,3.66-6.98,5.19-5.45,3.02-13.04,4.18-19.86,2.57-11.19-2.63-21.8-13.04-21.88-26.57h8.86c.58,8.51,6.03,14.63,12.3,17.08,5.71,2.23,12.39,1.73,17.59-1.6,1.22-.78,3.41-2.42,3.93-3.52-6.05.18-2.69,1.58-9.41,3.58-10.53,3.12-21.78-4.6-22.16-15.53l47.7-.15c-.11-3.25-.96-6.41-2.48-9.31-1.52-2.9-3.71-5.54-6.49-7.83Z"/>
  <g>
    <path class="st1" d="M13.9,142.1c6.66-.31,17.03-.1,24.18-.07l.08-11.06-24.19-.02-.08-7.55,26.75-.06v-11.95c-12.95-.03-27.9-.21-40.64.03v50.46s41.03.06,41.03.06v-11.88s-27.11-.04-27.11-.04l-.02-7.93Z"/>
    <path class="st1" d="M131.66,133.61c-4.48-2.06-9.1-2.73-13.98-4.14-2.25-.65-5.04-1.46-4.88-4.16.16-2.65,3.21-3.2,5.97-3.08,7.1.3,11.97,4.49,13.24,4.83.92-1.02,6.67-9.04,6.9-10-.9-.44-1.66-1.16-2.65-1.75-7.36-4.42-17.12-6.15-25.36-3.84-4.76,1.34-8.33,3.96-10.34,7.56-2.29,4.09-2.79,10.07-.42,14.52,4.51,8.46,19.31,8.39,24.33,11.46,2.43,1.49,2.2,4.27-.2,5.46-4.56,2.26-12.92-.59-17.5-3.45-.95-.59-1.9-1.51-2.79-1.81-.73.67-7.37,8.64-7.63,9.24.76,1.06,4.1,3.19,5.17,3.79,6.5,3.62,14.7,5.58,23.36,4.22,5.54-.87,9.17-2.95,12.5-5.44,2.07-1.55,3.74-3.52,4.9-5.79,2.51-4.93,2.5-11.37-.21-16.22Z"/>
    <path class="st1" d="M82.73,144.26c8.53-3.73,12.2-12.08,9.47-21.33-.96-3.27-2.47-4.76-4.26-6.56-3.64-3.65-9.87-4.97-16.44-4.98-6.86,0-16.82-.24-23.34.05v50.44s13.99.04,13.99.04l.02-15.22c6.34-.09,5.62-.63,7.23,1.68l3.89,5.82c.84,1.3,1.62,2.53,2.55,3.86.94,1.33,1.63,2.55,2.55,3.83,2.38.26,12.75.11,16.23.05-.8-1.36-1.93-2.94-2.89-4.3-1.18-1.67-8.66-12.41-9.01-13.38ZM62.17,135.64l.06-12.05c6.47-.11,16.8-1.63,16.65,6.14-.15,7.51-10.3,5.98-16.7,5.91Z"/>
    <path class="st1" d="M187.77,136.48c-2.83-6.69-8.02-19.68-10.8-25.43l-13.49-.05-21.55,50.95,14.81.03,3.6-9.02h19.41s3.7,8.98,3.7,8.98l15.05.03c-1.18-3.43-9.13-21.73-10.72-25.49ZM164.6,141.98c.06-.97,5.05-13.32,5.6-14.05l5.42,14.07-11.02-.02Z"/>
  </g>
  <g>
    <path class="st2" d="M34.14,173.72h-5.34l-.63,3.55h5.16l-.35,1.99h-5.16l-.91,5.14h-2.08l2.23-12.68h7.42l-.35,1.99Z"/>
    <path class="st2" d="M38.31,184.64c-1.33,0-2.38-.46-3.14-1.38-.77-.92-1.03-2.05-.8-3.39.24-1.34.9-2.47,1.99-3.39,1.09-.92,2.3-1.38,3.63-1.38s2.39.46,3.15,1.38c.76.92,1.02,2.05.79,3.39-.24,1.34-.9,2.47-1.98,3.39-1.09.92-2.3,1.38-3.64,1.38ZM36.78,181.93c.45.54,1.07.82,1.87.82s1.52-.27,2.15-.82c.64-.54,1.03-1.23,1.18-2.05.14-.82,0-1.5-.45-2.05-.45-.54-1.07-.81-1.87-.81s-1.51.27-2.15.81c-.64.54-1.03,1.23-1.18,2.05-.15.82,0,1.5.45,2.05Z"/>
    <path class="st2" d="M48.19,176.87c.69-1.12,1.72-1.68,3.09-1.68l-.37,2.12c-.74-.05-1.42.13-2.05.54-.63.4-1.02,1.07-1.19,2l-.8,4.56h-1.96l1.6-9.05h1.96l-.27,1.52Z"/>
    <path class="st2" d="M64.4,175.35h1.96l-1.6,9.05h-1.96l.23-1.3c-.92,1.03-2.06,1.54-3.44,1.54-1.24,0-2.23-.46-2.94-1.39-.72-.92-.96-2.05-.73-3.38.24-1.34.88-2.47,1.92-3.39,1.04-.92,2.19-1.38,3.43-1.38,1.38,0,2.34.51,2.9,1.52l.23-1.29ZM58.33,181.95c.45.55,1.08.82,1.9.82s1.55-.27,2.19-.82c.64-.55,1.03-1.24,1.18-2.07.15-.83,0-1.52-.45-2.07-.45-.55-1.08-.82-1.9-.82s-1.55.28-2.19.82c-.64.55-1.03,1.24-1.18,2.07-.15.83,0,1.52.45,2.07Z"/>
    <path class="st2" d="M78.33,175.12c1.24,0,2.23.46,2.95,1.38.72.92.96,2.05.73,3.39-.23,1.33-.87,2.46-1.92,3.38-1.04.92-2.19,1.39-3.43,1.39-1.38,0-2.34-.51-2.9-1.54l-.23,1.3h-1.96l2.23-12.68h1.96l-.87,4.91c.92-1.01,2.06-1.52,3.44-1.52ZM74.77,181.95c.45.55,1.08.82,1.9.82s1.55-.27,2.19-.82c.64-.55,1.03-1.24,1.18-2.07.15-.83,0-1.52-.45-2.07-.45-.55-1.08-.82-1.9-.82s-1.55.28-2.19.82c-.64.55-1.03,1.24-1.18,2.07-.15.83,0,1.52.45,2.07Z"/>
    <path class="st2" d="M86.26,176.87c.69-1.12,1.72-1.68,3.09-1.68l-.37,2.12c-.74-.05-1.42.13-2.05.54-.63.4-1.02,1.07-1.19,2l-.8,4.56h-1.96l1.6-9.05h1.96l-.27,1.52Z"/>
    <path class="st2" d="M89.17,184.41l1.6-9.05h1.96l-1.6,9.05h-1.96ZM92.89,173.93c-.29.25-.61.37-.96.37s-.63-.12-.83-.37c-.2-.25-.27-.54-.21-.9.06-.34.23-.63.53-.89.29-.25.61-.38.96-.38s.63.12.83.37c.2.25.27.55.21.9-.06.35-.24.65-.53.9Z"/>
    <path class="st2" d="M102.2,175.35h1.92l-1.52,8.64c-.24,1.38-.88,2.43-1.92,3.17-1.04.74-2.2,1.11-3.49,1.11-2.09,0-3.39-.73-3.91-2.19l1.86-.98c.31.93,1.11,1.39,2.4,1.39.84,0,1.54-.22,2.1-.66.55-.44.9-1.05,1.04-1.84l.19-1.1c-.92,1.05-2.06,1.58-3.43,1.58-1.28,0-2.28-.46-3-1.37-.72-.91-.97-2.01-.74-3.31s.86-2.39,1.9-3.3,2.2-1.37,3.48-1.37c1.36,0,2.32.52,2.87,1.58l.24-1.34ZM96.12,181.82c.45.54,1.09.82,1.91.82s1.56-.27,2.2-.82c.65-.54,1.04-1.22,1.18-2.03s-.01-1.49-.47-2.03c-.45-.54-1.09-.82-1.91-.82s-1.56.27-2.2.82c-.65.54-1.04,1.22-1.18,2.03s.01,1.49.47,2.03Z"/>
    <path class="st2" d="M111.2,175.12c1.04,0,1.82.33,2.34,1,.52.66.68,1.58.48,2.73l-.98,5.56h-1.96l.95-5.36c.12-.68.03-1.2-.27-1.56-.3-.36-.76-.54-1.39-.54-.69,0-1.28.21-1.78.64s-.83,1.08-.98,1.96l-.86,4.85h-1.96l2.24-12.68h1.96l-.84,4.78c.75-.93,1.77-1.39,3.05-1.39Z"/>
    <path class="st2" d="M121.46,177.24h-2.25l-.77,4.35c-.07.38-.03.64.11.81.14.16.38.25.7.27.33.02.74.02,1.24,0l-.31,1.76c-1.53.18-2.58.05-3.16-.39-.57-.44-.76-1.25-.55-2.44l.77-4.35h-1.67l.33-1.88h1.67l.34-1.96,2.06-.58-.45,2.54h2.25l-.33,1.88Z"/>
    <path class="st2" d="M138.61,175.35h2.06l-4.44,9.05h-1.92l-.81-6.1-2.98,6.1h-1.92l-1.25-9.05h2.06l.66,6.25,3-6.25h1.87l.78,6.25,2.88-6.25Z"/>
    <path class="st2" d="M144.76,184.64c-1.33,0-2.38-.46-3.14-1.38-.77-.92-1.03-2.05-.8-3.39.24-1.34.9-2.47,1.99-3.39,1.09-.92,2.3-1.38,3.63-1.38s2.39.46,3.15,1.38c.76.92,1.02,2.05.79,3.39-.24,1.34-.9,2.47-1.98,3.39-1.09.92-2.3,1.38-3.64,1.38ZM143.23,181.93c.45.54,1.07.82,1.87.82s1.51-.27,2.15-.82c.64-.54,1.03-1.23,1.18-2.05.15-.82,0-1.5-.45-2.05-.45-.54-1.07-.81-1.87-.81s-1.51.27-2.15.81c-.64.54-1.03,1.23-1.18,2.05-.14.82,0,1.5.45,2.05Z"/>
    <path class="st2" d="M154.64,176.87c.69-1.12,1.72-1.68,3.09-1.68l-.37,2.12c-.74-.05-1.42.13-2.05.54-.63.4-1.02,1.07-1.19,2l-.8,4.56h-1.96l1.6-9.05h1.96l-.27,1.52Z"/>
    <path class="st2" d="M157.55,184.41l2.33-13.22h1.96l-2.33,13.22h-1.96Z"/>
    <path class="st2" d="M171.18,171.73h1.96l-2.24,12.68h-1.96l.23-1.3c-.92,1.03-2.06,1.54-3.44,1.54-1.24,0-2.22-.46-2.94-1.39-.72-.92-.96-2.05-.73-3.38.24-1.34.88-2.47,1.92-3.39,1.04-.92,2.19-1.38,3.43-1.38,1.38,0,2.34.51,2.9,1.52l.87-4.91ZM164.47,181.95c.45.55,1.08.82,1.9.82s1.55-.27,2.19-.82c.64-.55,1.03-1.24,1.18-2.07.15-.83,0-1.52-.45-2.07-.45-.55-1.08-.82-1.9-.82s-1.55.28-2.19.82c-.64.55-1.03,1.24-1.18,2.07-.15.83,0,1.52.45,2.07Z"/>
  </g>
  <circle class="st3" cx="61.9" cy="18.51" r="9.05"/>
  <path class="st0" d="M136.73,26.29c-.27.48-4.58,15.57-4.58,15.57,0,0,3.33-1,6.43-1.92,1.23,8.61,2,14.14-.63,22.61-11.12,35.84-57.8,41.39-77.38,11.79-6.86-10.38-9.33-23.27-5.85-35.6.4-1.43,1.16-3.2,1.47-4.55-2.24-.82-4.25-2.08-5.93-3.71-6.49,16.93-5.02,32.96,4.08,47.05,7.68,11.89,22.16,21.53,36.73,22.68,9.02.71,18.27-.71,25.54-3.99,9.64-4.34,18.41-11.9,23.53-21.26,4-7.32,6.31-14.73,6.52-23.37.14-5.57-.79-8.73-1.43-13.64l5.11-1.53-13.61-10.13Z"/>
  <path class="st1" d="M110.53,2.01c-6.58-1.87-13.33-2.52-20.57-1.59-5.18.67-13.42,3.01-17.07,5.55,1.73,1.51,3.13,3.38,4.12,5.48,2.18-.78,4.22-1.81,6.69-2.6,13.25-4.22,27.54-1.41,38.38,6.46,3.08,2.23,7.71,6.56,9.54,9.78,1.15-2.81,2.27-5.8,2.27-5.8l2.95,1.41c-4.62-8.07-16.65-15.96-26.32-18.7Z"/>
</svg>