<svg xmlns="http://www.w3.org/2000/svg" xmlns:xlink="http://www.w3.org/1999/xlink" width="200" zoomAndPan="magnify" viewBox="0 0 150 149.999998" height="200" preserveAspectRatio="xMidYMid meet" version="1.2"><g id="887416a957"><path style=" stroke:none;fill-rule:evenodd;fill:#0a4165;fill-opacity:1;" d="M 102.710938 51.449219 C 99.964844 48.601562 97.53125 46.152344 93.492188 43.914062 C 89.722656 41.828125 85.90625 40.3125 81.097656 39.589844 C 60.8125 36.535156 45.042969 50.515625 41.226562 65.964844 C 31.625 104.804688 81.972656 127.460938 104.921875 95.617188 C 105.746094 94.472656 107.5625 91.816406 107.84375 90.230469 L 105.234375 90.230469 C 102.792969 93.691406 103.375 94.136719 99.464844 98.203125 C 97.449219 100.304688 94.550781 102.472656 91.339844 104.257812 C 84.996094 107.777344 76.164062 109.128906 68.226562 107.253906 C 55.203125 104.1875 42.855469 92.046875 42.765625 76.273438 L 53.074219 76.273438 C 53.75 86.195312 60.09375 93.332031 67.390625 96.1875 C 74.035156 98.789062 81.808594 98.203125 87.859375 94.320312 C 89.28125 93.414062 91.828125 91.5 92.433594 90.21875 C 85.394531 90.425781 89.304688 92.058594 81.484375 94.390625 C 69.226562 98.03125 56.136719 89.027344 55.695312 76.285156 L 111.402344 76.261719 C 112.277344 66.851562 107.15625 56.054688 102.722656 51.449219 Z M 108.785156 73.671875 L 98.507812 73.648438 C 97.625 68.039062 96.820312 65.054688 93.902344 61.242188 C 88.453125 54.117188 79.050781 50.351562 69.707031 52.941406 C 65.539062 54.09375 60.835938 56.847656 59.070312 59.65625 C 63.257812 59.75 62.433594 59.492188 65.15625 57.71875 C 77.539062 49.640625 95.519531 58.863281 95.808594 73.671875 L 42.796875 73.671875 C 42.542969 69.367188 44.429688 63.714844 46.011719 60.449219 C 55.960938 39.996094 83.285156 35.554688 99.03125 51.261719 C 103.046875 55.261719 109.226562 64.601562 108.773438 73.671875 Z M 108.785156 73.671875 "/><path style=" stroke:none;fill-rule:nonzero;fill:#4687c7;fill-opacity:1;" d="M 46.371094 37.410156 C 46.371094 38.101562 46.304688 38.789062 46.167969 39.46875 C 46.035156 40.148438 45.835938 40.808594 45.570312 41.445312 C 45.304688 42.085938 44.980469 42.695312 44.597656 43.269531 C 44.210938 43.847656 43.777344 44.378906 43.285156 44.871094 C 42.796875 45.359375 42.265625 45.796875 41.691406 46.183594 C 41.117188 46.566406 40.507812 46.894531 39.871094 47.15625 C 39.230469 47.421875 38.570312 47.625 37.894531 47.757812 C 37.214844 47.894531 36.53125 47.960938 35.839844 47.960938 C 35.148438 47.960938 34.460938 47.894531 33.785156 47.757812 C 33.105469 47.625 32.449219 47.421875 31.808594 47.15625 C 31.167969 46.894531 30.5625 46.566406 29.988281 46.183594 C 29.414062 45.796875 28.878906 45.359375 28.390625 44.871094 C 27.902344 44.378906 27.464844 43.847656 27.082031 43.269531 C 26.699219 42.695312 26.375 42.085938 26.109375 41.445312 C 25.84375 40.808594 25.644531 40.148438 25.507812 39.46875 C 25.375 38.789062 25.308594 38.101562 25.308594 37.410156 C 25.308594 36.714844 25.375 36.03125 25.507812 35.351562 C 25.644531 34.671875 25.84375 34.011719 26.109375 33.371094 C 26.375 32.730469 26.699219 32.121094 27.082031 31.546875 C 27.464844 30.96875 27.902344 30.4375 28.390625 29.945312 C 28.878906 29.457031 29.414062 29.019531 29.988281 28.636719 C 30.5625 28.25 31.167969 27.925781 31.808594 27.660156 C 32.449219 27.394531 33.105469 27.195312 33.785156 27.058594 C 34.460938 26.925781 35.148438 26.855469 35.839844 26.855469 C 36.53125 26.855469 37.214844 26.925781 37.894531 27.058594 C 38.570312 27.195312 39.230469 27.394531 39.871094 27.660156 C 40.507812 27.925781 41.117188 28.25 41.691406 28.636719 C 42.265625 29.019531 42.796875 29.457031 43.285156 29.945312 C 43.777344 30.4375 44.210938 30.96875 44.597656 31.546875 C 44.980469 32.121094 45.304688 32.730469 45.570312 33.371094 C 45.835938 34.011719 46.035156 34.671875 46.167969 35.351562 C 46.304688 36.03125 46.371094 36.714844 46.371094 37.410156 Z M 46.371094 37.410156 "/><path style=" stroke:none;fill-rule:evenodd;fill:#0a4165;fill-opacity:1;" d="M 122.925781 46.480469 C 122.609375 47.039062 117.59375 64.636719 117.59375 64.636719 C 117.59375 64.636719 121.46875 63.46875 125.078125 62.394531 C 126.511719 72.4375 127.40625 78.882812 124.34375 88.761719 C 111.402344 130.550781 57.078125 137.019531 34.292969 102.507812 C 26.308594 90.402344 23.433594 75.375 27.484375 60.996094 C 27.949219 59.328125 28.832031 57.265625 29.195312 55.691406 C 26.585938 54.734375 24.246094 53.265625 22.292969 51.367188 C 14.738281 71.105469 16.449219 89.796875 27.039062 106.226562 C 35.980469 120.089844 52.832031 131.332031 69.785156 132.671875 C 80.285156 133.5 91.050781 131.84375 99.511719 128.019531 C 110.730469 122.957031 120.933594 114.144531 126.894531 103.230469 C 131.550781 94.695312 134.238281 86.054688 134.480469 75.980469 C 134.644531 69.484375 133.5625 65.800781 132.816406 60.074219 L 138.765625 58.292969 Z M 122.925781 46.480469 "/><path style=" stroke:none;fill-rule:evenodd;fill:#4687c7;fill-opacity:1;" d="M 92.433594 18.167969 C 84.777344 15.988281 76.921875 15.230469 68.496094 16.316406 C 62.464844 17.097656 52.878906 19.824219 48.628906 22.785156 C 50.644531 24.546875 52.273438 26.726562 53.425781 29.175781 C 55.960938 28.265625 58.335938 27.066406 61.210938 26.144531 C 76.628906 21.222656 93.261719 24.5 105.875 33.675781 C 109.460938 36.277344 114.847656 41.328125 116.976562 45.082031 C 118.316406 41.804688 119.621094 38.316406 119.621094 38.316406 L 123.054688 39.960938 C 117.675781 30.550781 103.675781 21.351562 92.421875 18.15625 Z M 92.433594 18.167969 "/></g></svg>